HIERARCHY
ROOT pelvis
{
  OFFSET 0 100 0
  CHANNELS 6 Xposition Yposition Zposition Zrotation Xrotation Yrotation
  JOINT pelvis_right_femur
  {
    OFFSET -10.78128 -3.44521 -0.5502486
    CHANNELS 3 Zrotation Xrotation Yrotation
    JOINT right_femur_tibia
    {
      OFFSET -0.8047443 -44.0398 -0.1307829
      CHANNELS 3 Zrotation Xrotation Yrotation
      JOINT right_tibia_foot
      {
        OFFSET 3.006224 -47.83518 -5
        CHANNELS 3 Zrotation Xrotation Yrotation
        End Site
        {
          OFFSET 0 -5 15
        }
      }
    }
  }
  JOINT pelvis_left_femur
  {
    OFFSET 10.78128 -3.44521 -0.5502486
    CHANNELS 3 Zrotation Xrotation Yrotation
    JOINT left_femur_tibia
    {
      OFFSET 0.8047443 -44.0398 -0.1307829
      CHANNELS 3 Zrotation Xrotation Yrotation
      JOINT left_tibia_foot
      {
        OFFSET -4.370144 -48.10324 -4.275266
        CHANNELS 3 Zrotation Xrotation Yrotation
        End Site
        {
          OFFSET 0 -5 15
        }
      }
    }
  }
  JOINT pelvis_spine1
  {
    OFFSET 0 6.468898 -3.129235
    CHANNELS 3 Zrotation Xrotation Yrotation
    JOINT spine1
    {
      OFFSET 0 23.15396 4.99043
      CHANNELS 3 Zrotation Xrotation Yrotation
      JOINT spine2
      {
        OFFSET 0 20.79997 -5.064912
        CHANNELS 3 Zrotation Xrotation Yrotation
        JOINT neck
        {
          OFFSET 0 14.38658 9.616178
          CHANNELS 3 Zrotation Xrotation Yrotation
          End Site
          {
            OFFSET 0 20 0
          }
        }
      }
      JOINT right_manubrium
      {
        OFFSET -5.722621 16.35077 3.967754
        CHANNELS 3 Zrotation Xrotation Yrotation
        JOINT right_clavicle
        {
          OFFSET -13.16364 1.694482 -4.693211
          CHANNELS 3 Zrotation Xrotation Yrotation
          JOINT right_humerus
          {
            OFFSET -28.5034 -0.3100689 -2.792744
            CHANNELS 3 Zrotation Xrotation Yrotation
            JOINT right_radius
            {
              OFFSET -25.15693 0.02248979 -1.271978
              CHANNELS 3 Zrotation Xrotation Yrotation
              End Site
              {
                OFFSET -15 0 0
              }
            }
          }
        }
      }
      JOINT left_manubrium
      {
        OFFSET 5.722621 16.35077 3.967754
        CHANNELS 3 Zrotation Xrotation Yrotation
        JOINT left_clavicle
        {
          OFFSET 13.16364 1.694482 -4.693211
          CHANNELS 3 Zrotation Xrotation Yrotation
          JOINT left_humerus
          {
            OFFSET 29.39168 -1.063119 -2.237045
            CHANNELS 3 Zrotation Xrotation Yrotation
            JOINT left_radius
            {
              OFFSET 24.59957 -0.9528479 0.9047498
              CHANNELS 3 Zrotation Xrotation Yrotation
              End Site
              {
                OFFSET 15 -0 -0
              }
            }
          }
        }
      }
    }
  }
}
MOTION
Frames: 17
Frame Time: 0.0416666666667
0 103.5113 0 1.606797 -3.05863 0.04304377 2.431572 -14.09278 6.809046 -0 38.35394 -0 -6.158205 -18.12799 -3.173009 -7.210898 12.26862 -23.85146 -0 4.834507 -0 8.569353 -15.59436 26.51596 -2.49844 -3.345154 5.310322 2.947266 9.389535 -7.354663 1.317317 22.02729 6.287607 2.100211 -27.03226 10.2066 5.569008 -19.60275 10.63874 85.79491 34.81107 -19.44067 -0 0 15.30339 -5.179335 6.399937 3.519983 5.635973 -20.61294 -1.036295 -96.08385 26.78419 25.38954 0 0 -13.59188 10.7674 16.72232 2.418383
0.2552468 103.3863 1.372459 1.21821 -2.252199 -0.0704547 3.171699 -15.56649 8.254098 -0 38.65171 -0 -5.662389 -18.10718 -3.653924 -7.034891 11.94432 -24.00365 -0 5.01284 -0 8.114264 -16.39358 26.89207 -2.612513 -3.449483 5.425058 2.853901 9.32313 -7.229355 1.303255 22.25932 6.115539 1.961241 -26.86173 10.08532 5.474204 -19.69547 10.51791 85.56097 34.72512 -19.04606 -0 0 15.52567 -5.317314 6.113907 3.640124 5.483655 -20.54796 -1.031174 -96.42792 27.22374 25.86337 0 0 -12.97349 10.40952 16.97148 2.817073
0.5125277 103.1759 2.982691 0.6130082 -0.9865812 -0.1574898 4.113887 -19.01179 8.576667 -0 35.62391 -0 -5.516667 -15.86734 -3.608052 -6.713254 11.70196 -23.02603 -0 5.151648 -0 6.730737 -18.29074 25.96829 -2.417218 -3.192895 5.213197 3.134004 9.741349 -7.761215 1.124865 21.69036 6.372421 2.290654 -27.04133 9.771981 5.552458 -19.5041 10.92181 86.57019 34.53711 -20.58452 -0 0 14.56511 -5.801727 6.600191 3.875724 5.675958 -21.16549 -1.368513 -95.31584 26.58197 24.60836 0 0 -15.15398 10.1927 15.53851 3.206626
0.7697473 102.8728 4.798527 0.1384228 0.1667422 -0.1813325 4.941977 -22.03584 8.916188 -0 32.95671 -0 -5.354688 -14.12802 -3.577846 -6.471335 11.55379 -22.19217 -0 5.181529 -0 5.85666 -19.74544 25.18658 -2.324214 -3.0711 5.075091 3.359215 10.02976 -8.175086 0.9688668 21.33488 6.498733 2.467483 -27.1945 9.493592 5.550392 -19.40678 11.17634 87.36587 34.28933 -21.79722 -0 0 13.86976 -6.122814 6.763512 4.045974 5.766273 -21.68423 -1.663579 -94.6211 26.37516 23.85253 0 0 -16.74995 9.873815 14.50293 3.729805
1.032114 102.4385 6.957202 -0.1884228 1.417611 -0.1135542 5.636549 -25.35113 8.699184 -0 29.00539 -0 -5.253444 -11.99562 -3.25408 -6.367247 11.59102 -21.01384 -0 5.274471 -0 5.688429 -20.9423 24.21937 -2.225265 -2.961357 4.902494 3.618013 10.29458 -8.620749 0.8186363 20.94959 6.651568 2.645271 -27.42144 9.270189 5.54012 -19.29925 11.42528 88.2264 34.03872 -23.11187 -0 0 13.14229 -6.336477 6.919391 4.153713 5.892001 -22.22854 -1.957663 -93.89562 26.15562 23.03157 0 0 -18.49419 9.662476 13.46772 4.151906
1.300682 101.8506 9.570478 -0.4145812 2.654026 0.07086994 6.187625 -28.66014 8.077186 -0 24.3607 -0 -5.270627 -9.592816 -2.731033 -6.34903 11.81581 -19.67629 -0 5.673097 -0 5.88119 -21.8819 23.10369 -2.141744 -2.873783 4.730185 3.873363 10.53313 -9.058137 0.668829 20.58839 6.792858 2.803267 -27.64541 9.054656 5.50771 -19.19711 11.64907 89.07508 33.77629 -24.39645 -0 0 12.43604 -6.544993 7.04231 4.261322 6.014273 -22.77597 -2.249879 -93.20122 25.99201 22.24193 0 0 -20.20999 9.448359 12.47493 4.585396
1.573449 101.1214 12.74602 -0.6087506 3.787922 0.3995224 6.613362 -31.72386 7.137708 -0 19.56737 -0 -5.516854 -6.912515 -2.052451 -6.347462 12.22581 -18.30016 -0 6.686872 -0 6.025026 -22.54053 21.74829 -2.067142 -2.795419 4.556452 4.114886 10.74527 -9.476 0.5249252 20.2472 6.930192 2.951241 -27.84613 8.851509 5.460037 -19.08901 11.85093 89.89127 33.52551 -25.61198 -0 0 11.75198 -6.777219 7.174124 4.382191 6.139776 -23.30978 -2.529211 -92.51275 25.83507 21.44816 0 0 -21.88083 9.252157 11.5278 4.99079
1.845754 100.308 16.5791 -0.8448672 4.673351 0.8964259 6.936114 -34.14433 5.95725 -0 15.34712 -0 -6.113913 -4.070524 -1.261114 -6.269037 12.80828 -17.00969 -0 8.673828 -0 5.617492 -22.784 19.99427 -2.004418 -2.720191 4.397006 4.319007 10.93399 -9.848326 0.3901301 19.94892 7.051541 3.08635 -27.97716 8.645995 5.402618 -18.97386 12.02629 90.6273 33.29652 -26.68078 -0 0 11.11585 -7.087238 7.331663 4.542045 6.252042 -23.80469 -2.789586 -91.8521 25.68483 20.68095 0 0 -23.40084 9.037678 10.65486 5.393774
2.11017 99.52457 21.13768 -1.19685 5.139083 1.560958 7.226632 -35.41893 4.673216 -0 12.48926 -0 -7.10807 -1.398826 -0.4409987 -5.996055 13.51012 -15.88804 -0 12.01461 -0 4.155613 -22.33955 17.6794 -1.957651 -2.645296 4.274641 4.459366 11.10232 -10.1419 0.2703572 19.72508 7.140359 3.201018 -27.99547 8.428427 5.346953 -18.8582 12.16839 91.22015 33.09817 -27.51163 -0 0 10.57263 -7.508433 7.517626 4.752675 6.326823 -24.22384 -3.023005 -91.27394 25.56001 20.01287 0 0 -24.61671 8.765162 9.908629 5.825804
2.356024 98.94393 26.43251 -1.710173 5.046207 2.328167 7.620927 -35.0552 3.558114 -0 11.63374 -0 -8.35064 0.5286819 0.217789 -5.420255 14.16886 -14.89869 -0 17.04295 -0 1.42357 -20.79272 14.82692 -1.934663 -2.573811 4.22486 4.506508 11.25627 -10.31642 0.1707007 19.61825 7.171987 3.281682 -27.86119 8.185732 5.30888 -18.76378 12.26926 91.58847 32.9315 -27.99828 -0 0 10.19332 -8.061828 7.709822 5.018223 6.326519 -24.52182 -3.224112 -90.87661 25.51589 19.58072 0 0 -25.32159 8.370861 9.358685 6.352526
2.57228 98.77102 32.38127 -2.349539 4.392056 3.031168 8.235191 -32.81078 2.986714 -0 12.82632 -0 -9.439506 1.096778 0.4126731 -4.537829 14.40654 -13.81547 -0 23.95865 -0 -2.072477 -17.77755 11.88946 -1.945898 -2.512096 4.284686 4.436097 11.39668 -10.33297 0.09518454 19.66457 7.124253 3.315064 -27.55205 7.909408 5.299918 -18.7237 12.32225 91.64553 32.80339 -28.03144 -0 0 10.06099 -8.754148 7.874742 5.342057 6.215313 -24.65059 -3.385063 -90.76008 25.61388 19.5341 0 0 -25.33277 7.800523 9.063483 7.033555
2.760349 99.17444 38.78526 -2.945537 3.355004 3.423693 8.95325 -28.8647 3.175999 -0 15.12361 -0 -9.939298 0.06491277 -0.06405204 -3.556326 13.54796 -12.35288 -0 32.75262 -0 -5.07196 -13.45592 9.680814 -1.99997 -2.459731 4.467311 4.239971 11.50854 -10.17066 0.04704275 19.86476 6.995105 3.299809 -27.06899 7.6038 5.311612 -18.75996 12.32558 91.33413 32.74478 -27.52762 -0 0 10.22498 -9.598845 8.009882 5.747726 5.987428 -24.57556 -3.48904 -90.93035 25.84851 19.90592 0 0 -24.63294 7.063689 9.017918 7.849317
2.951341 100.1928 45.33996 -3.204556 2.159423 3.310732 9.321772 -23.69108 3.843695 -0 16.85105 -0 -9.841478 -2.164241 -0.9684991 -2.837817 10.74065 -10.59609 -0 42.97569 -0 -6.464953 -8.878499 8.77368 -2.092614 -2.401114 4.744416 3.936066 11.57064 -9.847665 0.02706425 20.16445 6.814465 3.255575 -26.43737 7.287034 5.314829 -18.86062 12.28985 90.67716 32.7925 -26.49353 -0 0 10.65206 -10.6286 8.17319 6.279485 5.684626 -24.30283 -3.51883 -91.24553 26.1028 20.52949 0 0 -23.45045 6.252478 9.120097 8.679249
3.191041 101.6632 51.7064 -2.840128 0.8361174 2.718542 8.823426 -17.76988 4.232299 -0 16.69961 -0 -9.619585 -4.740539 -1.608696 -2.629107 5.534074 -9.174241 -0 53.15069 -0 -6.33172 -5.531097 9.072301 -2.203275 -2.315438 5.0691 3.562229 11.58304 -9.41791 0.02973141 20.48119 6.628172 3.213334 -25.70331 6.977448 5.283949 -18.99491 12.23973 89.77893 32.93831 -25.05632 -0 0 11.24977 -11.87032 8.437905 6.966087 5.368273 -23.8855 -3.479317 -91.52251 26.23152 21.17201 0 0 -22.11795 5.466639 9.220692 9.409746
3.478631 103.2388 57.65367 -1.820658 -0.810021 1.922074 7.454899 -11.50744 3.834037 -0 14.79339 -0 -9.521174 -6.837122 -1.514753 -2.817547 -1.349614 -8.509165 -0 60.61105 -0 -5.686993 -4.234317 10.18675 -2.314771 -2.197725 5.417367 3.150135 11.55999 -8.927079 0.04685533 20.76425 6.463438 3.189056 -24.91588 6.684923 5.210228 -19.15351 12.19447 88.7329 33.13332 -23.35382 -0 0 11.96224 -13.31041 8.815981 7.798463 5.071553 -23.37539 -3.391413 -91.69351 26.18726 21.74544 0 0 -20.82805 4.738798 9.230216 10.02536
3.748452 104.5284 63.16972 -0.5393993 -2.863688 1.229211 5.951189 -5.352687 3.068169 -0 12.46505 -0 -9.143178 -8.138472 -1.054183 -2.858862 -8.256076 -8.068393 -0 62.88029 -0 -5.230896 -4.538362 11.90722 -2.432926 -2.064555 5.801871 2.70575 11.49611 -8.37421 0.07550746 21.01881 6.314949 3.1714 -24.10633 6.415692 5.087331 -19.36561 12.14934 87.5309 33.34395 -21.38794 -0 0 12.83084 -14.90711 9.24908 8.757532 4.787427 -22.77095 -3.259491 -91.8217 26.02758 22.34116 0 0 -19.55533 4.052144 9.162512 10.56455
3.954 105.2648 68.4178 0.4079582 -4.921857 0.7139744 5.104988 0.2018417 2.707899 -0 10.78218 -0 -8.125183 -9.088745 -0.9328108 -2.111588 -13.98852 -6.98838 -0 59.26178 -0 -4.848171 -5.32494 14.03379 -2.583145 -1.943675 6.254001 2.217941 11.35666 -7.722315 0.1178961 21.27687 6.161207 3.133954 -23.2929 6.178297 4.896015 -19.68475 12.08106 86.07557 33.57403 -19.02069 -0 0 13.96411 -16.62161 9.652048 9.844538 4.492889 -22.02442 -3.059642 -92.00808 25.83605 23.11661 0 0 -18.17622 3.397301 9.082744 11.04066
